<svg xmlns="http://www.w3.org/2000/svg" width="492.574" height="217.619" viewBox="0 0 492.574 217.619">
  <g id="Group_14" data-name="Group 14" transform="translate(-740 -808)">
    <g id="fortune_cookie_stroke" data-name="fortune cookie stroke" transform="translate(740 808)">
      <path id="Path_1" data-name="Path 1" d="M532.307,515.991a4.118,4.118,0,0,0,1.634-2.954,16.365,16.365,0,0,0,0-3.469,25.708,25.708,0,0,1,0-3.469,15.526,15.526,0,0,1,.761-3.357c1.522-4.476,4.879-7.81,7.206-11.816a129.392,129.392,0,0,0,12.242-25c3.245-8.706,5.886-17.635,8.526-26.52,1.32-4.476,2.663-8.952,4.118-13.271.694-2.238,1.477-4.476,2.238-6.557a9.265,9.265,0,0,1,4.342-4.655l.515-.336-.246-.582c-1.634-3.67-3.6-7.094-5.125-10.675a8.729,8.729,0,0,1-1.1-5.214,12.689,12.689,0,0,1,2.842-4.722,19.054,19.054,0,0,0,3.156-5.3,24.615,24.615,0,0,0,1.208-6.02c.291-4.051,0-8.034.112-11.861a18.488,18.488,0,0,1,1.052-5.505,11.951,11.951,0,0,1,1.253-2.439l1.7-2.395,6.893-9.668c2.238-3.223,4.476-6.423,6.714-9.713l.425-.649.224-.336.112-.224c0,.157.269-1.074-.179-1.276h-.112l-1.186-.962c-.806-.6-1.611-1.209-2.462-1.746a49.24,49.24,0,0,0-5.259-3.021,55.705,55.705,0,0,0-11.346-4.028,47.728,47.728,0,0,0-5.975-1.119,22.136,22.136,0,0,0-6.2.246A30.413,30.413,0,0,0,549.2,332.3a56.871,56.871,0,0,0-4.856,3.514,18.618,18.618,0,0,1-4.744,2.976,37.036,37.036,0,0,1-5.572,1.141l-5.908,1.253-5.707,1.947c-1.925.649-3.67,1.656-5.505,2.484A80.942,80.942,0,0,0,497.485,359.6a100.708,100.708,0,0,0-14.837,18.754,93.984,93.984,0,0,0-9.914,21.73,80.559,80.559,0,0,0-3.849,23.61,78.817,78.817,0,0,0,4.051,23.565c4.968,15.2,13.181,29.093,22.021,42.073a61.219,61.219,0,0,0,7.519,9.287,99.807,99.807,0,0,0,8.8,8.057,105.86,105.86,0,0,0,9.69,6.938,30.956,30.956,0,0,0,5.349,2.753,7.051,7.051,0,0,0,6.109,0l.313-.179-.157-.358a60.428,60.428,0,0,0-6.714-11.324,48.169,48.169,0,0,0-8.952-9.6,29.718,29.718,0,0,0-5.595-3.514c-2.036-.85-4.028-1.723-6.02-2.663-3.961-1.857-7.833-3.916-11.615-6.132q5.595,3.424,11.525,6.333,2.954,1.432,5.975,2.753a27.892,27.892,0,0,1,5.461,3.558,47.221,47.221,0,0,1,8.75,9.646,59.839,59.839,0,0,1,6.535,11.3l.134-.537a6.176,6.176,0,0,1-5.3-.246,29.9,29.9,0,0,1-5.147-2.73c-3.267-2.238-6.423-4.476-9.466-6.982a94.333,94.333,0,0,1-8.616-8.034,58.924,58.924,0,0,1-7.3-9.176c-8.706-13.114-16.7-26.855-21.439-41.849a71.076,71.076,0,0,1,0-46.012,91.885,91.885,0,0,1,9.8-21.238,98.179,98.179,0,0,1,14.546-18.306,78.839,78.839,0,0,1,18.911-13.562c1.79-.761,3.491-1.746,5.326-2.372l5.505-1.88,5.662-1.231a38.75,38.75,0,0,0,6.02-1.276,21.886,21.886,0,0,0,5.259-3.312c1.567-1.186,3.111-2.35,4.722-3.446a28.489,28.489,0,0,1,10.362-4.61,19.7,19.7,0,0,1,5.617-.246,43.574,43.574,0,0,1,5.684,1.052,52.529,52.529,0,0,1,10.943,3.849,46.347,46.347,0,0,1,5.035,2.864c.806.515,1.589,1.1,2.35,1.678l1.141.9h0c-.47-.157-.291-1.32-.246-1.119v.112l-.179.291-.4.6q-3.357,4.868-6.714,9.69l-6.871,9.69-1.723,2.417a14.216,14.216,0,0,0-1.455,2.842,20.143,20.143,0,0,0-1.141,6.087c-.2,4.051.224,7.989,0,11.839a22.378,22.378,0,0,1-1.052,5.572,17.584,17.584,0,0,1-2.842,4.856,13.854,13.854,0,0,0-3.111,5.416,6.916,6.916,0,0,0,.157,3.312,20.6,20.6,0,0,0,1.1,2.865c1.589,3.693,3.6,7.117,5.214,10.653l.269-.918a17.7,17.7,0,0,0-2.842,2.238,7.365,7.365,0,0,0-2.014,3.178c-.739,2.238-1.5,4.476-2.238,6.714-1.41,4.476-2.708,8.952-3.984,13.428-2.6,8.952-5.1,17.9-8.191,26.564a129.236,129.236,0,0,1-11.749,25.065c-2.238,4.028-5.572,7.5-7.072,11.973a16.361,16.361,0,0,0-.716,3.424,25.871,25.871,0,0,0,.134,3.491,16.35,16.35,0,0,1,0,3.469,4.162,4.162,0,0,1-1.7,2.753Z" transform="translate(-468.884 -327.02)" fill="#333"/>
      <path id="Path_2" data-name="Path 2" d="M498.444,399.418a11.458,11.458,0,0,0-.448-1.723,2.238,2.238,0,0,0-1.276-1.231,7.249,7.249,0,0,0-3.536-.313,30.566,30.566,0,0,0-6.893,1.9,89.264,89.264,0,0,0-12.823,6.445,64.246,64.246,0,0,0-11.481,8.683,19.358,19.358,0,0,0-4.364,6,5.484,5.484,0,0,0-.2,4.1,5.752,5.752,0,0,0,2.954,2.909,35.312,35.312,0,0,0,7.027,2.238l6.982,1.634c4.677,1.052,9.377,1.925,14.1,2.686,9.444,1.589,18.955,2.708,28.466,3.469h1.141l-.537-.985-9.8-17.792-4.744-8.952C501.465,405.483,499.809,402.64,498.444,399.418Zm0,0c1.3,3.133,2.932,6.11,4.476,9.153l4.588,9.064,8.952,18.217.6-.9c-9.466-1.208-18.866-2.686-28.243-4.319l-14.01-2.708-6.982-1.5a35.36,35.36,0,0,1-6.714-1.947,4.006,4.006,0,0,1-2.238-1.88,3.648,3.648,0,0,1,0-2.865,17.211,17.211,0,0,1,3.8-5.64,62.457,62.457,0,0,1,10.921-8.952,67.833,67.833,0,0,1,12.533-6.714,31.483,31.483,0,0,1,6.826-2.014,7.363,7.363,0,0,1,3.491.269,2.014,2.014,0,0,1,1.253,1.164A9.429,9.429,0,0,1,498.444,399.418Z" transform="translate(-367.459 -241.554)" fill="#333"/>
      <path id="Path_3" data-name="Path 3" d="M482.8,411.381c-4.476,3.312-9.108,6.58-13.786,9.713s-9.332,6.221-14.121,9.108-9.713,5.595-14.748,8.012a64.9,64.9,0,0,1-7.7,3.066,23.207,23.207,0,0,1-7.877,1.32l.985,1.164c.537-5.371,1.119-10.764,1.589-16.135l1.477-16.158-.515.806,13.428-7.385h-.582Zm0,0-41.4-8.191h-.291l-.291.157-13.584,7.184-.47.246v.56l-1.634,16.113c-.582,5.393-1.029,10.765-1.522,16.158l-.112,1.119h1.1a25.66,25.66,0,0,0,8.632-1.5,70.094,70.094,0,0,0,7.928-3.269,138.12,138.12,0,0,0,14.7-8.437c4.722-3.088,9.377-6.266,13.875-9.668S478.531,415.029,482.8,411.381Z" transform="translate(-256.931 -232.726)" fill="#333"/>
      <path id="Path_4" data-name="Path 4" d="M457.661,384.72c-1.365,1.343-2.842,2.73-4.274,4.207h0v.134c0,2.014-.157,4.028-.157,6.042v.246l.2.157,4.006,2.865.537.4.269-.627c1.723-3.76,3.446-7.542,5.035-11.369l.134-.336H463.1C461.2,385.794,459.451,385.346,457.661,384.72Zm0,0c1.79.806,3.446,1.611,5.125,2.238l-.179-.425c-1.9,3.693-3.67,7.43-5.438,11.19l.806-.224-4.051-2.775.2.4c0-2.014,0-4.028-.157-6.042v.224C455.132,387.9,456.341,386.331,457.661,384.72Z" transform="translate(-304.072 -255.591)" fill="#333"/>
      <path id="Path_5" data-name="Path 5" d="M482.456,361.89a14.085,14.085,0,0,0-2.529,1.835c-.783.671-1.432,1.432-2.238,2.238a12.087,12.087,0,0,0-1.813,2.439,14.191,14.191,0,0,0-1.477,2.685h0q4.073-4.476,7.945-9.2Z" transform="translate(-370.493 -283.853)" fill="#333"/>
      <path id="Path_6" data-name="Path 6" d="M469.26,346.56" transform="translate(-345.794 -302.83)" fill="none"/>
      <path id="Path_7" data-name="Path 7" d="M468.813,332.272a16.1,16.1,0,0,0-.313,3.245c0,1.074.134,2.238.2,3.178a15.321,15.321,0,0,0,.649,3.133,14.251,14.251,0,0,0,1.119,3.044h.112c-.492-4.207-1.029-8.415-1.656-12.622Z" transform="translate(-345.414 -320.545)" fill="#333"/>
      <path id="Path_8" data-name="Path 8" d="M376.4,341.385q47,.783,96.589,0c50.756-.918,99.588-3.155,146.338-6.445.85,11.19.358,12.51.358,12.51-2.573,7.094-10.831,7.5-10.317,13.2.246,2.73,5.639,7.072,3.76,9.4-2.775,3.446-5.438,6.915-8.5,10.295-2.238,2.417-6.11,6.065-3.894,8.728a51.256,51.256,0,0,1,6.356,8.5c-6.266,1.074-16.135-.694-22.8-1.052l-19.85-.985q-25.177-1.209-50.465-2.126c-35.247-1.231-70.942-2.238-106.436-1.052a260.916,260.916,0,0,0-29.406,2.238c-4.9.716-12.152.694-13.584,4.476a6.131,6.131,0,0,0,.85,4.991" transform="translate(-261.548 -317.215)" fill="none" stroke="#333" stroke-miterlimit="10" stroke-width="1"/>
    </g>
    <g id="fortune_cookie_stroke-2" data-name="fortune cookie stroke" transform="translate(1120.207 683.904) rotate(69)">
      <path id="Path_1-2" data-name="Path 1" d="M512.679,462.948a2.962,2.962,0,0,1-1.175-2.125,11.774,11.774,0,0,1,0-2.5,18.479,18.479,0,0,0,0-2.5,11.163,11.163,0,0,0-.547-2.415c-1.095-3.22-3.509-5.618-5.183-8.5a93.067,93.067,0,0,1-8.805-17.981c-2.334-6.262-4.234-12.685-6.133-19.076-.95-3.22-1.916-6.439-2.962-9.546-.5-1.61-1.062-3.22-1.61-4.717a6.664,6.664,0,0,0-3.123-3.348l-.37-.241.177-.419c1.175-2.64,2.592-5.1,3.686-7.679a6.279,6.279,0,0,0,.789-3.751,9.127,9.127,0,0,0-2.044-3.4,13.7,13.7,0,0,1-2.27-3.815,17.706,17.706,0,0,1-.869-4.33c-.209-2.914,0-5.779-.081-8.532a13.3,13.3,0,0,0-.756-3.96,8.6,8.6,0,0,0-.9-1.755l-1.224-1.723-4.958-6.954c-1.61-2.318-3.22-4.62-4.829-6.986l-.306-.467-.161-.241-.081-.161c0,.113-.193-.773.129-.918h.08l.853-.692c.58-.435,1.159-.869,1.771-1.256a35.417,35.417,0,0,1,3.783-2.173,40.066,40.066,0,0,1,8.161-2.9,34.33,34.33,0,0,1,4.3-.8,15.923,15.923,0,0,1,4.459.177,21.876,21.876,0,0,1,8.049,3.541,40.883,40.883,0,0,1,3.493,2.527,13.392,13.392,0,0,0,3.413,2.141,26.641,26.641,0,0,0,4.008.821l4.25.9,4.1,1.4c1.384.467,2.64,1.191,3.96,1.787a58.222,58.222,0,0,1,13.973,10.061,72.439,72.439,0,0,1,10.673,13.49,67.609,67.609,0,0,1,7.131,15.631,57.945,57.945,0,0,1,2.769,16.983,56.694,56.694,0,0,1-2.914,16.951c-3.574,10.93-9.482,20.927-15.84,30.264a44.042,44.042,0,0,1-5.409,6.681,71.8,71.8,0,0,1-6.326,5.8,76.148,76.148,0,0,1-6.97,4.99,22.263,22.263,0,0,1-3.847,1.98,5.071,5.071,0,0,1-4.395,0l-.225-.129.113-.258a43.466,43.466,0,0,1,4.829-8.145,34.648,34.648,0,0,1,6.439-6.906,21.373,21.373,0,0,1,4.024-2.527c1.465-.612,2.9-1.239,4.33-1.916,2.849-1.336,5.634-2.817,8.355-4.411q-4.024,2.463-8.29,4.556-2.125,1.03-4.3,1.98a20.06,20.06,0,0,0-3.928,2.559,33.965,33.965,0,0,0-6.294,6.938,43.047,43.047,0,0,0-4.7,8.129l-.1-.386a4.442,4.442,0,0,0,3.815-.177,21.513,21.513,0,0,0,3.7-1.964c2.35-1.61,4.62-3.22,6.809-5.022a67.853,67.853,0,0,0,6.2-5.779,42.39,42.39,0,0,0,5.248-6.6c6.262-9.433,12.009-19.317,15.421-30.1a51.125,51.125,0,0,0,0-33.1A66.093,66.093,0,0,0,547,364.689a70.619,70.619,0,0,0-10.463-13.168,56.71,56.71,0,0,0-13.6-9.755c-1.288-.547-2.511-1.256-3.831-1.706l-3.96-1.352-4.073-.885a27.873,27.873,0,0,1-4.33-.918,15.744,15.744,0,0,1-3.783-2.383c-1.127-.853-2.238-1.69-3.4-2.479a20.492,20.492,0,0,0-7.453-3.316,14.168,14.168,0,0,0-4.041-.177,31.345,31.345,0,0,0-4.089.757,37.786,37.786,0,0,0-7.872,2.769,33.339,33.339,0,0,0-3.622,2.06c-.58.37-1.143.789-1.69,1.207l-.821.644h0c.338-.113.209-.95.177-.8v.08l.129.209.29.435q2.415,3.5,4.829,6.97l4.942,6.97,1.24,1.738a10.228,10.228,0,0,1,1.046,2.044,14.49,14.49,0,0,1,.821,4.379c.145,2.914-.161,5.747,0,8.516a16.1,16.1,0,0,0,.757,4.008,12.649,12.649,0,0,0,2.044,3.493,9.965,9.965,0,0,1,2.238,3.9,4.974,4.974,0,0,1-.113,2.382,14.808,14.808,0,0,1-.789,2.061c-1.143,2.656-2.592,5.119-3.751,7.662l-.193-.66a12.732,12.732,0,0,1,2.044,1.61,5.3,5.3,0,0,1,1.449,2.286c.531,1.61,1.079,3.22,1.61,4.829,1.014,3.22,1.948,6.439,2.865,9.659,1.867,6.439,3.67,12.878,5.892,19.108a92.961,92.961,0,0,0,8.451,18.029c1.61,2.9,4.008,5.393,5.087,8.612a11.767,11.767,0,0,1,.515,2.463,18.622,18.622,0,0,1-.1,2.511,11.757,11.757,0,0,0,0,2.5,2.994,2.994,0,0,0,1.223,1.98Z" transform="translate(-244.748 -327.02)" fill="#333"/>
      <path id="Path_3-2" data-name="Path 3" d="M0,4.913C2.685,6.9,5.464,8.86,8.269,10.74s5.6,3.732,8.471,5.464,5.826,3.356,8.847,4.806A38.93,38.93,0,0,0,30.2,22.848a13.921,13.921,0,0,0,4.725.792l-.591.7c-.322-3.222-.671-6.457-.953-9.679L32.5,4.967l.309.483L24.755,1.02H25.1Zm0,0L24.835,0h.175l.174.094L33.333,4.4l.282.148v.336l.98,9.666c.349,3.235.617,6.457.913,9.692l.067.671h-.658a15.392,15.392,0,0,1-5.178-.9,42.038,42.038,0,0,1-4.756-1.961A82.845,82.845,0,0,1,16.163,17c-2.833-1.853-5.625-3.759-8.323-5.8S2.564,7.1,0,4.913Z" transform="translate(205.169 144.548) rotate(-47)" fill="#333"/>
      <path id="Path_4-2" data-name="Path 4" d="M457.367,384.72c.982.966,2.044,1.964,3.075,3.026h0v.1c0,1.449.113,2.9.113,4.346v.177l-.145.113-2.881,2.06-.386.29-.193-.451c-1.239-2.7-2.479-5.425-3.622-8.178l-.1-.241h.225C454.824,385.493,456.079,385.171,457.367,384.72Zm0,0c-1.288.58-2.479,1.159-3.686,1.61l.129-.306c1.368,2.656,2.64,5.344,3.912,8.049l-.579-.161,2.914-2-.145.29c0-1.449,0-2.9.113-4.346v.161C459.186,387.006,458.317,385.879,457.367,384.72Z" transform="translate(-254.293 -291.836)" fill="#333"/>
      <path id="Path_6-2" data-name="Path 6" d="M469.26,346.56" transform="translate(-244.519 -315.105)" fill="none"/>
      <path id="Path_9" data-name="Path 9" d="M4.137,0c.982.966,2.044,1.964,3.075,3.026h0v.1c0,1.449.113,2.9.113,4.346v.177l-.145.113L4.3,9.82l-.386.29-.193-.451C2.479,6.954,1.239,4.234.1,1.481L0,1.24H.225C1.594.773,2.849.451,4.137,0Zm0,0C2.849.58,1.658,1.159.451,1.61L.579,1.3C1.948,3.96,3.219,6.648,4.491,9.353l-.579-.161,2.914-2-.145.29c0-1.449,0-2.9.113-4.346V3.3C5.956,2.286,5.087,1.159,4.137,0Z" transform="matrix(0.53, 0.848, -0.848, 0.53, 219.331, 106.54)" fill="#333"/>
    </g>
  </g>
</svg>
