<svg xmlns="http://www.w3.org/2000/svg" viewBox="0 0 160.55 94.77">
  <defs>
    <style>
      .a {
        fill: #333;
      }

      .b, .c {
        fill: none;
      }

      .c {
        stroke: #333;
        stroke-miterlimit: 10;
      }
    </style>
  </defs>
  <g>
    <path class="a" d="M496.09,411.46a1.84,1.84,0,0,1-.73-1.32,7.31,7.31,0,0,1,0-1.55,11.49,11.49,0,0,0,0-1.55,6.94,6.94,0,0,0-.34-1.5c-.68-2-2.18-3.49-3.22-5.28a57.82,57.82,0,0,1-5.47-11.17c-1.45-3.89-2.63-7.88-3.81-11.85-.59-2-1.19-4-1.84-5.93-.31-1-.66-2-1-2.93a4.14,4.14,0,0,0-1.94-2.08l-.23-.15.11-.26c.73-1.64,1.61-3.17,2.29-4.77a3.9,3.9,0,0,0,.49-2.33,5.67,5.67,0,0,0-1.27-2.11,8.51,8.51,0,0,1-1.41-2.37,11,11,0,0,1-.54-2.69c-.13-1.81,0-3.59-.05-5.3a8.26,8.26,0,0,0-.47-2.46,5.34,5.34,0,0,0-.56-1.09l-.76-1.07-3.08-4.32c-1-1.44-2-2.87-3-4.34l-.19-.29-.1-.15-.05-.1c0,.07-.12-.48.08-.57l.05,0,.53-.43c.36-.27.72-.54,1.1-.78a22,22,0,0,1,2.35-1.35,24.89,24.89,0,0,1,5.07-1.8,21.32,21.32,0,0,1,2.67-.5,9.89,9.89,0,0,1,2.77.11,13.59,13.59,0,0,1,5,2.2c.75.49,1.47,1,2.17,1.57a8.32,8.32,0,0,0,2.12,1.33,16.55,16.55,0,0,0,2.49.51l2.64.56,2.55.87c.86.29,1.64.74,2.46,1.11a36.17,36.17,0,0,1,8.68,6.25,45,45,0,0,1,6.63,8.38,42,42,0,0,1,4.43,9.71,36,36,0,0,1,1.72,10.55,35.22,35.22,0,0,1-1.81,10.53c-2.22,6.79-5.89,13-9.84,18.8a27.35,27.35,0,0,1-3.36,4.15,44.59,44.59,0,0,1-3.93,3.6,47.31,47.31,0,0,1-4.33,3.1,13.83,13.83,0,0,1-2.39,1.23,3.15,3.15,0,0,1-2.73,0l-.14-.08.07-.16a27,27,0,0,1,3-5.06,21.53,21.53,0,0,1,4-4.29,13.28,13.28,0,0,1,2.5-1.57c.91-.38,1.8-.77,2.69-1.19,1.77-.83,3.5-1.75,5.19-2.74q-2.5,1.53-5.15,2.83-1.32.64-2.67,1.23a12.46,12.46,0,0,0-2.44,1.59,21.1,21.1,0,0,0-3.91,4.31,26.74,26.74,0,0,0-2.92,5.05l-.06-.24a2.76,2.76,0,0,0,2.37-.11,13.36,13.36,0,0,0,2.3-1.22c1.46-1,2.87-2,4.23-3.12a42.16,42.16,0,0,0,3.85-3.59,26.33,26.33,0,0,0,3.26-4.1c3.89-5.86,7.46-12,9.58-18.7a31.76,31.76,0,0,0,0-20.56,41.06,41.06,0,0,0-4.38-9.49,43.87,43.87,0,0,0-6.5-8.18,35.23,35.23,0,0,0-8.45-6.06c-.8-.34-1.56-.78-2.38-1.06l-2.46-.84-2.53-.55a17.32,17.32,0,0,1-2.69-.57,9.78,9.78,0,0,1-2.35-1.48c-.7-.53-1.39-1.05-2.11-1.54a12.73,12.73,0,0,0-4.63-2.06,8.8,8.8,0,0,0-2.51-.11,19.47,19.47,0,0,0-2.54.47,23.47,23.47,0,0,0-4.89,1.72,20.72,20.72,0,0,0-2.25,1.28c-.36.23-.71.49-1.05.75l-.51.4h0c.21-.07.13-.59.11-.5l0,.05.08.13.18.27c1,1.45,2,2.89,3,4.33L476,341.2l.77,1.08a6.35,6.35,0,0,1,.65,1.27,9,9,0,0,1,.51,2.72c.09,1.81-.1,3.57,0,5.29a10,10,0,0,0,.47,2.49,7.86,7.86,0,0,0,1.27,2.17,6.19,6.19,0,0,1,1.39,2.42,3.09,3.09,0,0,1-.07,1.48,9.2,9.2,0,0,1-.49,1.28c-.71,1.65-1.61,3.18-2.33,4.76l-.12-.41a7.91,7.91,0,0,1,1.27,1,3.29,3.29,0,0,1,.9,1.42c.33,1,.67,2,1,3,.63,2,1.21,4,1.78,6,1.16,4,2.28,8,3.66,11.87a57.75,57.75,0,0,0,5.25,11.2c1,1.8,2.49,3.35,3.16,5.35a7.31,7.31,0,0,1,.32,1.53,11.56,11.56,0,0,1-.06,1.56,7.31,7.31,0,0,0,0,1.55A1.86,1.86,0,0,0,496.09,411.46Z" transform="translate(-363.83 -326.98)"/>
    <path class="a" d="M465.9,397.56a5.12,5.12,0,0,1,.2-.77,1,1,0,0,1,.57-.55,3.24,3.24,0,0,1,1.58-.14,13.66,13.66,0,0,1,3.08.85,39.88,39.88,0,0,1,5.73,2.88,28.71,28.71,0,0,1,5.13,3.88,8.65,8.65,0,0,1,1.95,2.68,2.45,2.45,0,0,1,.09,1.83,2.57,2.57,0,0,1-1.32,1.3,15.78,15.78,0,0,1-3.14,1l-3.12.73c-2.09.47-4.19.86-6.3,1.2-4.22.71-8.47,1.21-12.72,1.55l-.51,0,.24-.44,4.38-7.95,2.12-4C464.55,400.27,465.29,399,465.9,397.56Zm0,0c-.58,1.4-1.31,2.73-2,4.09l-2.05,4.05-4,8.14-.27-.4c4.23-.54,8.43-1.2,12.62-1.93l6.26-1.21,3.12-.67a15.8,15.8,0,0,0,3-.87,1.79,1.79,0,0,0,1-.84,1.63,1.63,0,0,0,0-1.28,7.69,7.69,0,0,0-1.7-2.52,27.91,27.91,0,0,0-4.88-4,30.31,30.31,0,0,0-5.6-3,14.07,14.07,0,0,0-3.05-.9,3.29,3.29,0,0,0-1.56.12.9.9,0,0,0-.56.52A4.22,4.22,0,0,0,465.9,397.56Z" transform="translate(-363.83 -326.98)"/>
    <path class="a" d="M423.5,406.85c2,1.48,4.07,2.94,6.16,4.34s4.17,2.78,6.31,4.07,4.34,2.5,6.59,3.58a29,29,0,0,0,3.44,1.37,10.37,10.37,0,0,0,3.52.59l-.44.52c-.24-2.4-.5-4.81-.71-7.21l-.66-7.22.23.36-6-3.3.26,0Zm0,0L442,403.19l.13,0,.13.07,6.07,3.21.21.11,0,.25.73,7.2c.26,2.41.46,4.81.68,7.22l.05.5-.49,0a11.47,11.47,0,0,1-3.86-.67,31.34,31.34,0,0,1-3.54-1.46,61.73,61.73,0,0,1-6.57-3.77c-2.11-1.38-4.19-2.8-6.2-4.32S425.41,408.48,423.5,406.85Z" transform="translate(-363.83 -326.98)"/>
    <path class="a" d="M455.8,384.72c.61.6,1.27,1.22,1.91,1.88l0,0v.06c0,.9.07,1.8.07,2.7v.11l-.09.07-1.79,1.28-.24.18-.12-.28c-.77-1.68-1.54-3.37-2.25-5.08l-.06-.15.14,0C454.22,385.2,455,385,455.8,384.72Zm0,0c-.8.36-1.54.72-2.29,1l.08-.19c.85,1.65,1.64,3.32,2.43,5l-.36-.1,1.81-1.24-.09.18c0-.9,0-1.8.07-2.7l0,.1C456.93,386.14,456.39,385.44,455.8,384.72Z" transform="translate(-363.83 -326.98)"/>
    <path class="a" d="M474.4,361.89a6.29,6.29,0,0,1,1.13.82c.35.3.64.64,1,1s.57.7.81,1.09A6.34,6.34,0,0,1,478,366l0,0q-1.82-2-3.55-4.11Z" transform="translate(-363.83 -326.98)"/>
    <path class="b" d="M469.26,346.56" transform="translate(-363.83 -326.98)"/>
    <path class="a" d="M469.29,332.26a7.19,7.19,0,0,1,.14,1.45c0,.48-.06,1-.09,1.42s-.15.94-.29,1.4a6.37,6.37,0,0,1-.5,1.36h-.05c.22-1.88.46-3.76.74-5.64Z" transform="translate(-363.83 -326.98)"/>
    <path class="c" d="M473.11,337.82q-21,.35-43.16,0c-22.68-.41-44.5-1.41-65.39-2.88-.38,5-.16,5.59-.16,5.59,1.15,3.17,4.84,3.35,4.61,5.9-.11,1.22-2.52,3.16-1.68,4.2,1.24,1.54,2.43,3.09,3.8,4.6,1,1.08,2.73,2.71,1.74,3.9a22.9,22.9,0,0,0-2.84,3.8c2.8.48,7.21-.31,10.19-.47l8.87-.44q11.25-.54,22.55-.95c15.75-.55,31.7-1,47.56-.47a116.58,116.58,0,0,1,13.14,1c2.19.32,5.43.31,6.07,2a2.74,2.74,0,0,1-.38,2.23" transform="translate(-363.83 -326.98)"/>
  </g>
</svg>
